<svg width="18" height="22" viewBox="0 0 18 22" fill="none" xmlns="http://www.w3.org/2000/svg">
<path d="M1.66146 1.47347H3.19222V0.510254C3.19994 0.379919 3.25715 0.257454 3.35216 0.167902C3.44717 0.0783496 3.57281 0.0284742 3.70337 0.0284742C3.83393 0.0284742 3.95956 0.0783496 4.05458 0.167902C4.14959 0.257454 4.2068 0.379919 4.21452 0.510254V1.47347H6.46143V0.510254C6.46143 0.374926 6.51519 0.245141 6.61088 0.14945C6.70657 0.0537587 6.83635 0 6.97168 0C7.10701 0 7.23679 0.0537587 7.33248 0.14945C7.42817 0.245141 7.48193 0.374926 7.48193 0.510254V1.47347H9.72884V0.510254C9.73656 0.379919 9.79377 0.257454 9.88878 0.167902C9.9838 0.0783496 10.1094 0.0284742 10.24 0.0284742C10.3706 0.0284742 10.4962 0.0783496 10.5912 0.167902C10.6862 0.257454 10.7434 0.379919 10.7511 0.510254V1.47347H12.998V0.510254C12.998 0.374926 13.0518 0.245141 13.1475 0.14945C13.2432 0.0537587 13.373 0 13.5083 0C13.6436 0 13.7734 0.0537587 13.8691 0.14945C13.9648 0.245141 14.0186 0.374926 14.0186 0.510254V1.47347H15.7552C16.1954 1.47442 16.6173 1.64982 16.9284 1.96125C17.2395 2.27268 17.4144 2.69474 17.4149 3.13493V20.3385C17.413 20.7783 17.2376 21.1995 16.9268 21.5107C16.616 21.8218 16.195 21.9976 15.7552 22H1.66146C1.2211 21.9991 0.799054 21.8237 0.487675 21.5123C0.176296 21.2009 0.000945987 20.7789 0 20.3385L0 3.13493C0.000473912 2.69443 0.175672 2.2721 0.487153 1.96062C0.798635 1.64914 1.22096 1.47394 1.66146 1.47347ZM3.8099 17.6423C3.67837 17.6423 3.55222 17.59 3.45922 17.497C3.36621 17.404 3.31397 17.2779 3.31397 17.1463C3.31397 17.0148 3.36621 16.8887 3.45922 16.7956C3.55222 16.7026 3.67837 16.6504 3.8099 16.6504H13.6068C13.7383 16.6504 13.8644 16.7026 13.9574 16.7956C14.0505 16.8887 14.1027 17.0148 14.1027 17.1463C14.1027 17.2779 14.0505 17.404 13.9574 17.497C13.8644 17.59 13.7383 17.6423 13.6068 17.6423H3.8099ZM3.8099 14.373C3.68375 14.3655 3.56526 14.31 3.47863 14.218C3.39199 14.126 3.34375 14.0044 3.34375 13.878C3.34375 13.7516 3.39199 13.63 3.47863 13.538C3.56526 13.446 3.68375 13.3906 3.8099 13.383H13.6068C13.7329 13.3906 13.8514 13.446 13.938 13.538C14.0247 13.63 14.0729 13.7516 14.0729 13.878C14.0729 14.0044 14.0247 14.126 13.938 14.218C13.8514 14.31 13.7329 14.3655 13.6068 14.373H3.8099ZM3.8099 11.1056C3.67837 11.1056 3.55222 11.0534 3.45922 10.9604C3.36621 10.8674 3.31397 10.7412 3.31397 10.6097C3.31397 10.4782 3.36621 10.352 3.45922 10.259C3.55222 10.166 3.67837 10.1138 3.8099 10.1138H13.6068C13.7287 10.1265 13.8416 10.184 13.9237 10.2751C14.0057 10.3662 14.0512 10.4844 14.0512 10.607C14.0512 10.7296 14.0057 10.8479 13.9237 10.939C13.8416 11.0301 13.7287 11.0875 13.6068 11.1003L3.8099 11.1056ZM3.8099 7.83643C3.68375 7.82884 3.56526 7.77338 3.47863 7.68137C3.39199 7.58937 3.34375 7.46776 3.34375 7.34139C3.34375 7.21502 3.39199 7.09341 3.47863 7.00141C3.56526 6.9094 3.68375 6.85394 3.8099 6.84635H13.6068C13.7329 6.85394 13.8514 6.9094 13.938 7.00141C14.0247 7.09341 14.0729 7.21502 14.0729 7.34139C14.0729 7.46776 14.0247 7.58937 13.938 7.68137C13.8514 7.77338 13.7329 7.82884 13.6068 7.83643H3.8099ZM14.0257 2.46533V3.42855C14.0257 3.56388 13.972 3.69366 13.8763 3.78935C13.7806 3.88504 13.6508 3.9388 13.5155 3.9388C13.3801 3.9388 13.2503 3.88504 13.1547 3.78935C13.059 3.69366 13.0052 3.56388 13.0052 3.42855V2.46354H10.7511V3.42676C10.7434 3.55709 10.6862 3.67956 10.5912 3.76911C10.4962 3.85866 10.3706 3.90854 10.24 3.90854C10.1094 3.90854 9.9838 3.85866 9.88878 3.76911C9.79377 3.67956 9.73656 3.55709 9.72884 3.42676V2.46354H7.48193V3.42676C7.48193 3.56209 7.42817 3.69187 7.33248 3.78756C7.23679 3.88325 7.10701 3.93701 6.97168 3.93701C6.83635 3.93701 6.70657 3.88325 6.61088 3.78756C6.51519 3.69187 6.46143 3.56209 6.46143 3.42676V2.46354H4.21452V3.42676C4.2068 3.55709 4.14959 3.67956 4.05458 3.76911C3.95956 3.85866 3.83393 3.90854 3.70337 3.90854C3.57281 3.90854 3.44717 3.85866 3.35216 3.76911C3.25715 3.67956 3.19994 3.55709 3.19222 3.42676V2.46354H1.66146C1.57355 2.46336 1.48648 2.48069 1.40533 2.5145C1.32418 2.54831 1.25058 2.59793 1.1888 2.66048C1.12612 2.72262 1.0763 2.79651 1.0422 2.87792C1.0081 2.95933 0.990384 3.04666 0.990072 3.13493V20.3385C0.991935 20.516 1.06327 20.6857 1.18878 20.8112C1.31428 20.9367 1.48397 21.0081 1.66146 21.0099H15.7552C15.9328 21.009 16.1029 20.9379 16.2283 20.8121C16.3537 20.6864 16.4243 20.5162 16.4248 20.3385V3.13493C16.4243 2.95732 16.3537 2.78709 16.2283 2.66134C16.1029 2.53558 15.9328 2.46449 15.7552 2.46354L14.0257 2.46533Z" fill="#1D8FA8"/>
</svg>
